# xmcd
#
# Track frame offsets:
#	150
#	22538
#	34463
#	46340
#	55365
#	62549
#	76687
#	88384
#
# Disc length: 1369 seconds
#
# Revision: 1
# Processed by: cddbd v1.5.2PL0 Copyright (c) Steve Scherf et al.
# Submitted via: audiograbber 1.83.01
#
DISCID=5b055708
DTITLE=Hank Cash - II - CD 2
DYEAR=2011
DGENRE=Rock 'n Roll
TTITLE0=Ich klau' mir 'nen Opel
TTITLE1=Ich werd' gesucht
TTITLE2=Kokain Blues
TTITLE3=Ich sitz' im Knast
TTITLE4=Delia ist weg
TTITLE5=25 Minuten zu geh'n
TTITLE6=Dreizehn
TTITLE7=Blaue Brege
EXTD=
EXTT0=
EXTT1=
EXTT2=
EXTT3=
EXTT4=
EXTT5=
EXTT6=
EXTT7=
PLAYORDER=
